<?xml version="1.0" encoding="utf-8"?>
<svg version="1.1" id="svg2" viewBox="0 0 187.5 187.5" height="52.916668mm" width="52.916668mm" xmlns="http://www.w3.org/2000/svg">
  <title id="title4801">Grunge Halftone 1</title>
  <g transform="translate(-278.29724,-432.4311)" id="layer1">
    <path style="fill: rgba(0, 0, 0, 0.11);" d="M 280.913 617.002 C 279.182 614.916 281.251 611.876 283.749 612.835 C 284.85 613.257 285.751 614.404 285.751 615.383 C 285.751 617.8 282.483 618.894 280.913 617.002 Z M 308.706 616.814 C 308.273 615.686 308.518 614.164 309.251 613.431 C 311.155 611.527 314.764 613.267 314.266 615.85 C 313.712 618.728 309.707 619.422 308.706 616.814 Z M 319.11 617.874 C 317.341 616.104 318.342 613.681 320.842 613.681 C 322.59 613.681 323.302 614.36 323.03 615.765 C 322.584 618.066 320.45 619.214 319.11 617.874 Z M 326.445 617.544 C 325.239 615.593 327.215 612.289 329.345 612.695 C 330.462 612.908 331.555 614.342 331.775 615.881 C 332.075 617.985 331.55 618.681 329.661 618.681 C 328.279 618.681 326.832 618.169 326.445 617.544 Z M 336.19 616.772 C 335.273 614.385 337.779 612.329 340.386 613.329 C 342.746 614.235 341.868 617.927 339.17 618.447 C 337.973 618.677 336.631 617.924 336.19 616.772 Z M 356.217 616.845 C 355.839 615.858 355.878 614.486 356.305 613.795 C 357.327 612.142 360.751 613.498 360.751 615.556 C 360.751 617.905 357.03 618.962 356.218 616.845 Z M 374.581 616.902 C 372.64 614.564 373.871 612.431 377.161 612.431 C 379.03 612.431 379.572 613.127 379.275 615.146 C 378.776 618.538 376.61 619.348 374.581 616.902 Z M 384.084 617.848 C 382.252 616.016 383.307 612.431 385.677 612.431 C 388.868 612.431 390.096 614.583 388.205 616.861 C 386.555 618.849 385.369 619.133 384.084 617.848 Z M 402.834 617.848 C 401.002 616.016 402.057 612.431 404.427 612.431 C 407.618 612.431 408.846 614.583 406.955 616.861 C 405.305 618.849 404.119 619.133 402.834 617.848 Z M 412.86 617.874 C 411.091 616.104 412.092 613.681 414.592 613.681 C 416.34 613.681 417.052 614.36 416.78 615.765 C 416.334 618.066 414.2 619.214 412.86 617.874 Z M 421.895 616.679 C 420.784 615.34 420.736 614.446 421.72 613.462 C 423.446 611.736 427.001 613.029 427.001 615.383 C 427.001 617.988 423.681 618.83 421.895 616.679 Z M 459.589 617.486 C 457.519 616.207 458.724 612.431 461.203 612.431 C 462.182 612.431 463.291 613.234 463.668 614.215 C 464.575 616.579 461.766 618.831 459.589 617.486 Z M 290.058 616.072 C 288.967 614.307 291.377 611.898 293.142 612.989 C 295.124 614.214 294.804 617.431 292.699 617.431 C 291.709 617.431 290.52 616.82 290.058 616.072 Z M 299.736 615.258 C 300.363 612 304.501 611.636 304.501 614.839 C 304.501 616.628 303.698 617.431 301.909 617.431 C 300.12 617.431 299.447 616.758 299.736 615.258 Z M 347.239 615.244 C 347.77 612.485 349.993 612.545 350.53 615.333 C 350.776 616.611 350.13 617.431 348.876 617.431 C 347.588 617.431 346.975 616.612 347.239 615.244 Z M 363.801 616.061 C 362.699 614.278 366.348 610.63 368.131 611.732 C 370.513 613.204 369.729 617.431 367.074 617.431 C 365.74 617.431 364.267 616.815 363.801 616.061 Z M 392.92 616.684 C 391.747 615.511 393.344 612.431 395.126 612.431 C 396.908 612.431 398.505 615.511 397.331 616.684 C 396.92 617.095 395.928 617.431 395.126 617.431 C 394.323 617.431 393.331 617.095 392.92 616.684 Z M 430.967 615.357 C 431.493 612.622 435.126 612.235 435.126 614.914 C 435.126 615.936 434.09 616.971 432.825 617.215 C 431.154 617.537 430.645 617.028 430.967 615.357 Z M 440.126 616.181 C 439.079 614.488 440.491 612.431 442.699 612.431 C 443.69 612.431 444.501 613.556 444.501 614.931 C 444.501 617.519 441.485 618.381 440.126 616.181 Z M 449.501 614.931 C 449.501 613.048 450.153 612.374 451.688 612.669 C 452.891 612.901 453.876 613.919 453.876 614.931 C 453.876 615.944 452.891 616.961 451.688 617.193 C 450.153 617.489 449.501 616.814 449.501 614.931 Z M 336.939 607.982 C 335.78 606.585 335.78 605.777 336.939 604.38 C 338.827 602.105 342.001 603.234 342.001 606.181 C 342.001 609.128 338.827 610.257 336.939 607.982 Z M 384.813 609.052 C 382.677 608.26 382.836 604.108 385.034 603.264 C 386.015 602.888 387.514 603.418 388.364 604.443 C 389.603 605.936 389.559 606.638 388.143 607.969 C 387.171 608.883 385.672 609.371 384.813 609.052 Z M 430.689 607.982 C 429.53 606.585 429.53 605.777 430.689 604.38 C 432.577 602.105 435.751 603.234 435.751 606.181 C 435.751 609.128 432.577 610.257 430.689 607.982 Z M 280.334 606.897 C 279.289 604.176 282.791 601.743 285.051 603.619 C 287.326 605.508 286.197 608.681 283.251 608.681 C 282.023 608.681 280.71 607.878 280.334 606.897 Z M 289.501 606.181 C 289.501 604.514 290.334 603.681 292.001 603.681 C 293.667 603.681 294.501 604.514 294.501 606.181 C 294.501 607.848 293.667 608.681 292.001 608.681 C 290.334 608.681 289.501 607.848 289.501 606.181 Z M 299.501 606.181 C 299.501 604.298 300.153 603.623 301.688 603.919 C 302.891 604.151 303.876 605.169 303.876 606.181 C 303.876 607.194 302.891 608.211 301.688 608.443 C 300.153 608.739 299.501 608.064 299.501 606.181 Z M 308.251 606.181 C 308.251 604.514 309.084 603.681 310.751 603.681 C 312.417 603.681 313.251 604.514 313.251 606.181 C 313.251 607.848 312.417 608.681 310.751 608.681 C 309.084 608.681 308.251 607.848 308.251 606.181 Z M 317.626 607.431 C 316.579 605.738 317.991 603.681 320.199 603.681 C 321.19 603.681 322.001 604.806 322.001 606.181 C 322.001 608.769 318.985 609.631 317.626 607.431 Z M 327.001 606.255 C 327.001 602.889 329.365 601.76 331.643 604.038 C 333.922 606.316 332.793 608.681 329.427 608.681 C 327.858 608.681 327.001 607.823 327.001 606.255 Z M 347.8 607.814 C 346.306 606.32 346.993 603.681 348.876 603.681 C 349.907 603.681 350.751 604.492 350.751 605.482 C 350.751 607.571 348.966 608.98 347.8 607.814 Z M 356.61 607.874 C 354.893 606.156 355.783 603.504 357.938 603.919 C 359.141 604.151 360.126 605.129 360.126 606.094 C 360.126 608.068 357.92 609.184 356.61 607.874 Z M 364.501 606.255 C 364.501 602.889 366.865 601.76 369.143 604.038 C 371.422 606.316 370.293 608.681 366.927 608.681 C 365.358 608.681 364.501 607.823 364.501 606.255 Z M 375.36 607.874 C 373.643 606.156 374.533 603.504 376.688 603.919 C 377.891 604.151 378.876 605.13 378.876 606.094 C 378.876 608.068 376.67 609.184 375.36 607.874 Z M 393.251 606.181 C 393.251 604.298 393.903 603.623 395.438 603.919 C 396.641 604.151 397.626 605.169 397.626 606.181 C 397.626 607.194 396.641 608.211 395.438 608.443 C 393.903 608.739 393.251 608.064 393.251 606.181 Z M 402.001 606.255 C 402.001 602.889 404.365 601.76 406.643 604.038 C 408.922 606.316 407.793 608.681 404.427 608.681 C 402.858 608.681 402.001 607.823 402.001 606.255 Z M 412.86 607.874 C 411.091 606.104 412.092 603.681 414.592 603.681 C 416.34 603.681 417.052 604.36 416.78 605.765 C 416.334 608.066 414.2 609.214 412.86 607.874 Z M 421.61 607.874 C 419.841 606.104 420.842 603.681 423.342 603.681 C 425.09 603.681 425.802 604.36 425.53 605.765 C 425.084 608.066 422.95 609.214 421.61 607.874 Z M 439.904 606.68 C 438.946 604.182 441.986 602.113 444.072 603.844 C 445.963 605.414 444.87 608.681 442.453 608.681 C 441.473 608.681 440.327 607.78 439.904 606.68 Z M 450.36 607.874 C 448.591 606.104 449.592 603.681 452.092 603.681 C 453.84 603.681 454.552 604.36 454.28 605.765 C 453.834 608.066 451.7 609.214 450.36 607.874 Z M 458.916 607.497 C 457.817 605.719 459.219 603.681 461.541 603.681 C 462.636 603.681 463.264 604.559 463.03 605.765 C 462.543 608.276 460.047 609.326 458.916 607.497 Z M 281.61 599.124 C 279.841 597.354 280.842 594.931 283.342 594.931 C 285.09 594.931 285.802 595.61 285.53 597.015 C 285.084 599.316 282.95 600.464 281.61 599.124 Z M 290.334 599.098 C 288.502 597.266 289.557 593.681 291.927 593.681 C 295.118 593.681 296.346 595.833 294.455 598.111 C 292.805 600.099 291.619 600.383 290.334 599.098 Z M 299.581 598.153 C 297.64 595.814 298.871 593.681 302.161 593.681 C 304.03 593.681 304.572 594.377 304.275 596.396 C 303.776 599.788 301.61 600.598 299.581 598.152 Z M 319.084 599.098 C 317.252 597.266 318.307 593.681 320.677 593.681 C 323.868 593.681 325.096 595.833 323.205 598.111 C 321.555 600.099 320.369 600.383 319.084 599.098 Z M 337.348 598.529 C 335.446 596.626 336.754 593.681 339.501 593.681 C 342.247 593.681 343.555 596.626 341.653 598.529 C 340.882 599.3 339.913 599.931 339.501 599.931 C 339.088 599.931 338.12 599.3 337.348 598.529 Z M 347.089 598.736 C 345.019 597.457 346.224 593.681 348.703 593.681 C 349.682 593.681 350.791 594.484 351.168 595.465 C 352.075 597.829 349.266 600.081 347.089 598.736 Z M 355.443 598.369 C 354.513 595.838 355.79 593.681 358.221 593.681 C 360.652 593.681 361.97 595.838 361.087 598.369 C 360.787 599.228 359.524 599.931 358.28 599.931 C 357.036 599.931 355.759 599.228 355.443 598.369 Z M 402.834 599.098 C 401.002 597.266 402.057 593.681 404.427 593.681 C 407.618 593.681 408.846 595.833 406.955 598.111 C 405.305 600.099 404.119 600.383 402.834 599.098 Z M 422.089 598.736 C 420.019 597.457 421.224 593.681 423.703 593.681 C 424.682 593.681 425.791 594.484 426.168 595.465 C 427.075 597.829 424.266 600.081 422.089 598.736 Z M 430.831 598.152 C 428.89 595.814 430.121 593.681 433.411 593.681 C 435.28 593.681 435.822 594.377 435.525 596.396 C 435.026 599.788 432.86 600.598 430.831 598.152 Z M 449.663 598.252 C 447.932 596.166 450.001 593.126 452.499 594.085 C 453.6 594.507 454.501 595.654 454.501 596.633 C 454.501 599.05 451.233 600.144 449.663 598.252 Z M 308.808 597.322 C 307.717 595.557 310.127 593.148 311.892 594.239 C 313.874 595.464 313.554 598.681 311.449 598.681 C 310.459 598.681 309.27 598.07 308.808 597.322 Z M 327.78 596.759 C 327.353 595.645 327.858 594.524 328.981 594.093 C 331.315 593.197 333.869 595.419 332.693 597.322 C 331.466 599.307 328.633 598.982 327.78 596.759 Z M 364.501 596.806 C 364.501 595.764 365.612 594.931 367.001 594.931 C 368.389 594.931 369.501 595.764 369.501 596.806 C 369.501 597.848 368.389 598.681 367.001 598.681 C 365.612 598.681 364.501 597.848 364.501 596.806 Z M 374.17 597.934 C 372.997 596.76 374.594 593.681 376.376 593.681 C 378.158 593.681 379.755 596.76 378.581 597.934 C 378.17 598.345 377.178 598.681 376.376 598.681 C 375.573 598.681 374.581 598.345 374.17 597.934 Z M 383.808 597.322 C 382.717 595.557 385.127 593.148 386.892 594.239 C 388.874 595.464 388.554 598.681 386.449 598.681 C 385.459 598.681 384.27 598.07 383.808 597.322 Z M 393.467 596.607 C 393.993 593.872 397.626 593.485 397.626 596.164 C 397.626 597.186 396.59 598.221 395.325 598.465 C 393.654 598.787 393.145 598.278 393.467 596.607 Z M 412.217 596.607 C 412.743 593.872 416.376 593.485 416.376 596.164 C 416.376 597.186 415.34 598.221 414.075 598.465 C 412.404 598.787 411.895 598.278 412.217 596.607 Z M 440.126 597.431 C 439.079 595.738 440.491 593.681 442.699 593.681 C 443.69 593.681 444.501 594.806 444.501 596.181 C 444.501 598.769 441.485 599.631 440.126 597.431 Z M 458.808 597.322 C 458.346 596.575 458.545 595.386 459.251 594.681 C 460.828 593.104 463.251 594.436 463.251 596.88 C 463.251 598.984 460.034 599.305 458.808 597.322 Z M 280.751 587.431 C 280.751 585.548 281.403 584.873 282.938 585.169 C 284.141 585.401 285.126 586.419 285.126 587.431 C 285.126 588.444 284.141 589.461 282.938 589.693 C 281.403 589.989 280.751 589.314 280.751 587.431 Z M 290.166 588.747 C 289.067 586.969 290.469 584.931 292.791 584.931 C 293.886 584.931 294.514 585.809 294.28 587.015 C 293.793 589.526 291.297 590.577 290.166 588.747 Z M 298.463 587.219 C 298.738 585.277 299.709 584.306 301.376 584.306 C 305.098 584.306 304.726 589.186 300.963 589.719 C 298.539 590.062 298.12 589.642 298.463 587.219 Z M 308.876 588.681 C 307.829 586.988 309.241 584.931 311.449 584.931 C 312.44 584.931 313.251 586.056 313.251 587.431 C 313.251 590.019 310.235 590.881 308.876 588.681 Z M 318.401 588.237 C 317.312 586.925 317.382 586.171 318.694 585.082 C 320.007 583.992 320.761 584.062 321.85 585.375 C 322.939 586.687 322.869 587.441 321.557 588.531 C 320.244 589.62 319.49 589.55 318.401 588.237 Z M 328.563 589.046 C 326.383 588.246 326.61 585.348 328.923 584.461 C 330.037 584.033 331.158 584.538 331.589 585.661 C 332.47 587.956 330.772 589.856 328.563 589.046 Z M 337.86 589.124 C 336.143 587.406 337.033 584.754 339.188 585.169 C 340.391 585.401 341.376 586.379 341.376 587.344 C 341.376 589.318 339.17 590.434 337.86 589.124 Z M 346.416 588.747 C 345.317 586.969 346.719 584.931 349.041 584.931 C 350.136 584.931 350.764 585.809 350.53 587.015 C 350.043 589.526 347.547 590.577 346.416 588.747 Z M 355.751 587.431 C 355.751 585.548 356.403 584.873 357.938 585.169 C 360.777 585.716 360.777 589.146 357.938 589.693 C 356.403 589.989 355.751 589.314 355.751 587.431 Z M 365.166 588.747 C 364.067 586.969 365.469 584.931 367.791 584.931 C 368.886 584.931 369.514 585.809 369.28 587.015 C 368.793 589.526 366.297 590.577 365.166 588.747 Z M 373.706 588.064 C 373.273 586.936 373.518 585.414 374.251 584.681 C 376.155 582.777 379.764 584.517 379.266 587.1 C 378.712 589.978 374.707 590.672 373.706 588.064 Z M 383.654 587.93 C 382.696 585.432 385.736 583.363 387.822 585.094 C 389.713 586.664 388.62 589.931 386.203 589.931 C 385.223 589.931 384.077 589.031 383.654 587.93 Z M 392.551 588.561 C 392.086 587.808 392.561 586.335 393.608 585.288 C 395.886 583.01 398.251 584.139 398.251 587.505 C 398.251 590.16 394.024 590.943 392.551 588.561 Z M 402.626 588.681 C 401.579 586.988 402.991 584.931 405.199 584.931 C 406.19 584.931 407.001 586.056 407.001 587.431 C 407.001 590.019 403.985 590.881 402.626 588.681 Z M 412.86 589.124 C 411.143 587.406 412.033 584.754 414.188 585.169 C 415.391 585.401 416.376 586.379 416.376 587.344 C 416.376 589.318 414.17 590.434 412.86 589.124 Z M 421.17 587.972 C 420.129 585.257 422.773 582.704 424.667 584.597 C 426.267 586.197 425.275 589.931 423.251 589.931 C 422.52 589.931 421.584 589.05 421.17 587.972 Z M 430.334 588.147 C 429.426 585.784 432.235 583.531 434.412 584.876 C 436.482 586.156 435.277 589.931 432.799 589.931 C 431.819 589.931 430.71 589.128 430.334 588.147 Z M 440.377 589.141 C 439.895 588.659 439.501 587.194 439.501 585.886 C 439.501 584.134 440.242 583.612 442.313 583.907 C 444.152 584.168 445.126 585.166 445.126 586.789 C 445.126 589.268 442.035 590.799 440.377 589.141 Z M 449.92 587.972 C 448.879 585.257 451.523 582.704 453.417 584.597 C 455.017 586.197 454.025 589.931 452.001 589.931 C 451.27 589.931 450.334 589.05 449.92 587.972 Z M 457.834 588.147 C 456.789 585.426 460.291 582.993 462.551 584.869 C 464.826 586.758 463.697 589.931 460.751 589.931 C 459.523 589.931 458.21 589.128 457.834 588.147 Z M 280.831 579.402 C 278.89 577.064 280.121 574.931 283.411 574.931 C 285.28 574.931 285.822 575.627 285.525 577.646 C 285.026 581.038 282.86 581.848 280.831 579.402 Z M 309.813 580.296 C 307.633 579.496 307.86 576.598 310.173 575.711 C 311.287 575.283 312.408 575.788 312.839 576.911 C 313.72 579.206 312.022 581.106 309.813 580.296 Z M 328.339 579.986 C 326.269 578.707 327.474 574.931 329.953 574.931 C 330.932 574.931 332.041 575.734 332.418 576.715 C 333.325 579.079 330.516 581.331 328.339 579.986 Z M 346.098 579.779 C 344.196 577.876 345.504 574.931 348.251 574.931 C 350.997 574.931 352.305 577.876 350.403 579.779 C 349.632 580.55 348.663 581.181 348.251 581.181 C 347.838 581.181 346.87 580.55 346.098 579.779 Z M 363.726 579.366 C 362.756 576.84 364.198 574.931 367.074 574.931 C 368.829 574.931 369.501 575.796 369.501 578.056 C 369.501 580.364 368.837 581.181 366.961 581.181 C 365.565 581.181 364.109 580.364 363.726 579.366 Z M 384.084 580.348 C 382.252 578.516 383.307 574.931 385.677 574.931 C 388.868 574.931 390.096 577.083 388.205 579.361 C 386.555 581.349 385.369 581.633 384.084 580.348 Z M 393.331 579.402 C 391.39 577.064 392.621 574.931 395.911 574.931 C 397.78 574.931 398.322 575.627 398.025 577.646 C 397.526 581.038 395.36 581.848 393.331 579.402 Z M 412.467 579.345 C 412.089 578.358 412.128 576.986 412.555 576.296 C 413.577 574.642 417.001 575.998 417.001 578.056 C 417.001 580.405 413.28 581.462 412.468 579.345 Z M 422.313 580.302 C 420.177 579.51 420.336 575.358 422.534 574.514 C 423.515 574.138 425.014 574.668 425.864 575.693 C 427.103 577.186 427.059 577.887 425.643 579.219 C 424.671 580.133 423.172 580.621 422.313 580.302 Z M 431.098 579.779 C 429.196 577.877 430.504 574.931 433.251 574.931 C 435.997 574.931 437.305 577.877 435.403 579.779 C 434.632 580.55 433.663 581.181 433.251 581.181 C 432.838 581.181 431.87 580.55 431.098 579.779 Z M 449.439 579.232 C 448.28 577.835 448.28 577.027 449.439 575.63 C 451.327 573.355 454.501 574.484 454.501 577.431 C 454.501 580.378 451.327 581.507 449.439 579.232 Z M 290.058 578.572 C 288.967 576.807 291.377 574.398 293.142 575.489 C 293.889 575.951 294.501 577.139 294.501 578.13 C 294.501 580.234 291.284 580.555 290.058 578.572 Z M 299.501 578.056 C 299.501 576.802 300.32 576.156 301.599 576.402 C 302.753 576.624 303.698 577.369 303.698 578.056 C 303.698 578.744 302.753 579.488 301.599 579.71 C 300.32 579.957 299.501 579.31 299.501 578.056 Z M 318.489 577.744 C 319.02 574.985 321.243 575.045 321.78 577.832 C 322.026 579.111 321.38 579.931 320.126 579.931 C 318.838 579.931 318.225 579.112 318.489 577.744 Z M 337.217 577.857 C 337.46 576.592 338.496 575.556 339.518 575.556 C 342.197 575.556 341.81 579.188 339.075 579.715 C 337.404 580.037 336.895 579.528 337.217 577.857 Z M 355.967 577.857 C 356.21 576.592 357.246 575.556 358.268 575.556 C 360.947 575.556 360.56 579.188 357.825 579.715 C 356.154 580.037 355.645 579.528 355.967 577.857 Z M 374.501 577.431 C 374.501 575.764 375.334 574.931 377.001 574.931 C 378.667 574.931 379.501 575.764 379.501 577.431 C 379.501 579.098 378.667 579.931 377.001 579.931 C 375.334 579.931 374.501 579.098 374.501 577.431 Z M 402.626 578.681 C 401.579 576.988 402.991 574.931 405.199 574.931 C 406.19 574.931 407.001 576.056 407.001 577.431 C 407.001 580.019 403.985 580.881 402.626 578.681 Z M 440.101 578.641 C 439.616 577.856 439.807 576.625 440.525 575.906 C 442.205 574.226 446.122 575.691 445.438 577.744 C 444.743 579.834 441.205 580.428 440.101 578.641 Z M 459.501 577.431 C 459.501 575.548 460.153 574.873 461.688 575.169 C 462.891 575.401 463.876 576.419 463.876 577.431 C 463.876 578.443 462.891 579.461 461.688 579.693 C 460.153 579.989 459.501 579.314 459.501 577.431 Z M 291.063 571.552 C 288.927 570.76 289.086 566.608 291.284 565.764 C 292.265 565.388 293.764 565.918 294.614 566.943 C 295.853 568.436 295.809 569.138 294.393 570.469 C 293.421 571.383 291.922 571.871 291.063 571.552 Z M 318.189 570.482 C 317.03 569.085 317.03 568.277 318.189 566.88 C 320.077 564.605 323.251 565.734 323.251 568.681 C 323.251 571.628 320.077 572.757 318.189 570.482 Z M 280.126 569.931 C 279.079 568.238 280.491 566.181 282.699 566.181 C 283.69 566.181 284.501 567.306 284.501 568.681 C 284.501 571.269 281.485 572.131 280.126 569.931 Z M 298.851 569.891 C 298.366 569.106 298.557 567.875 299.275 567.156 C 300.955 565.476 304.872 566.941 304.188 568.994 C 303.493 571.084 299.955 571.678 298.851 569.891 Z M 307.834 569.397 C 306.789 566.676 310.291 564.243 312.551 566.119 C 314.826 568.008 313.697 571.181 310.751 571.181 C 309.523 571.181 308.21 570.378 307.834 569.397 Z M 328.563 570.296 C 326.383 569.496 326.61 566.598 328.923 565.711 C 330.037 565.283 331.158 565.788 331.589 566.911 C 332.47 569.206 330.772 571.105 328.563 570.296 Z M 337.001 568.681 C 337.001 566.798 337.653 566.123 339.188 566.419 C 340.391 566.651 341.376 567.669 341.376 568.681 C 341.376 569.693 340.391 570.711 339.188 570.943 C 337.653 571.239 337.001 570.564 337.001 568.681 Z M 345.751 568.755 C 345.751 565.389 348.115 564.26 350.393 566.538 C 352.672 568.816 351.543 571.181 348.177 571.181 C 346.608 571.181 345.751 570.323 345.751 568.755 Z M 355.051 569.811 C 353.949 568.028 357.598 564.38 359.381 565.482 C 360.134 565.948 360.751 567.42 360.751 568.755 C 360.751 571.41 356.524 572.193 355.051 569.811 Z M 364.501 568.681 C 364.501 567.014 365.334 566.181 367.001 566.181 C 368.667 566.181 369.501 567.014 369.501 568.681 C 369.501 570.348 368.667 571.181 367.001 571.181 C 365.334 571.181 364.501 570.348 364.501 568.681 Z M 374.501 568.056 C 374.501 565.35 375.006 564.829 377.313 565.157 C 379.159 565.419 380.126 566.415 380.126 568.056 C 380.126 569.697 379.159 570.693 377.313 570.955 C 375.006 571.283 374.501 570.762 374.501 568.056 Z M 383.916 569.997 C 382.817 568.219 384.219 566.181 386.541 566.181 C 387.636 566.181 388.264 567.059 388.03 568.265 C 387.543 570.775 385.047 571.826 383.916 569.997 Z M 392.834 569.397 C 391.789 566.676 395.291 564.243 397.551 566.119 C 399.826 568.008 398.697 571.181 395.751 571.181 C 394.523 571.181 393.21 570.378 392.834 569.397 Z M 402.666 569.997 C 401.567 568.219 402.969 566.181 405.291 566.181 C 406.386 566.181 407.014 567.059 406.78 568.265 C 406.293 570.775 403.797 571.826 402.666 569.997 Z M 411.584 569.397 C 410.676 567.034 413.485 564.781 415.662 566.126 C 417.732 567.406 416.527 571.181 414.049 571.181 C 413.069 571.181 411.96 570.378 411.584 569.397 Z M 422.8 570.314 C 421.306 568.82 421.993 566.181 423.876 566.181 C 424.907 566.181 425.751 566.992 425.751 567.982 C 425.751 570.071 423.966 571.48 422.8 570.314 Z M 431.217 569.345 C 430.839 568.358 430.878 566.986 431.305 566.295 C 432.327 564.642 435.751 565.998 435.751 568.056 C 435.751 570.404 432.03 571.462 431.218 569.345 Z M 450.36 570.374 C 448.643 568.656 449.533 566.004 451.688 566.419 C 452.891 566.651 453.876 567.629 453.876 568.594 C 453.876 570.568 451.67 571.684 450.36 570.374 Z M 458.251 568.755 C 458.251 565.389 460.615 564.26 462.893 566.538 C 465.172 568.816 464.043 571.181 460.677 571.181 C 459.108 571.181 458.251 570.323 458.251 568.755 Z M 440.368 569.132 C 439.201 567.965 440.611 566.181 442.699 566.181 C 443.69 566.181 444.501 567.025 444.501 568.056 C 444.501 569.939 441.862 570.626 440.368 569.132 Z M 281.098 561.029 C 279.196 559.126 280.504 556.181 283.251 556.181 C 285.997 556.181 287.305 559.126 285.403 561.029 C 284.632 561.8 283.663 562.431 283.251 562.431 C 282.838 562.431 281.87 561.8 281.098 561.029 Z M 289.92 560.472 C 288.879 557.757 291.523 555.204 293.417 557.097 C 295.017 558.697 294.025 562.431 292.001 562.431 C 291.27 562.431 290.334 561.55 289.92 560.472 Z M 298.67 560.472 C 298.257 559.395 298.518 557.914 299.251 557.181 C 301.195 555.237 304.501 556.944 304.501 559.892 C 304.501 562.975 299.81 563.441 298.67 560.472 Z M 309.589 561.236 C 307.519 559.957 308.724 556.181 311.203 556.181 C 312.182 556.181 313.291 556.984 313.668 557.965 C 314.575 560.329 311.766 562.581 309.589 561.236 Z M 318.67 560.472 C 317.629 557.757 320.273 555.204 322.167 557.097 C 323.767 558.697 322.775 562.431 320.751 562.431 C 320.02 562.431 319.084 561.55 318.67 560.472 Z M 346.584 561.598 C 344.752 559.766 345.807 556.181 348.177 556.181 C 351.368 556.181 352.596 558.333 350.705 560.611 C 349.055 562.599 347.869 562.883 346.584 561.598 Z M 355.913 560.752 C 354.182 558.666 356.251 555.626 358.749 556.585 C 359.85 557.007 360.751 558.154 360.751 559.133 C 360.751 561.55 357.483 562.644 355.913 560.752 Z M 364.956 560.564 C 364.523 559.436 364.768 557.914 365.501 557.181 C 367.405 555.277 371.014 557.017 370.516 559.6 C 369.962 562.478 365.957 563.172 364.956 560.564 Z M 412.467 560.595 C 412.089 559.608 412.128 558.236 412.555 557.546 C 413.577 555.892 417.001 557.248 417.001 559.306 C 417.001 561.655 413.28 562.712 412.468 560.595 Z M 422.151 560.737 C 421.062 559.425 421.132 558.671 422.444 557.582 C 423.757 556.492 424.511 556.562 425.6 557.875 C 426.689 559.187 426.619 559.941 425.307 561.031 C 423.994 562.12 423.24 562.05 422.151 560.737 Z M 440.011 560.708 C 438.999 558.072 440.419 556.181 443.411 556.181 C 445.3 556.181 445.825 556.877 445.525 558.981 C 445.059 562.248 441.08 563.495 440.011 560.708 Z M 327.558 559.822 C 326.467 558.057 328.877 555.648 330.642 556.739 C 332.624 557.964 332.304 561.181 330.199 561.181 C 329.209 561.181 328.02 560.57 327.558 559.822 Z M 337.001 558.681 C 337.001 556.798 337.653 556.123 339.188 556.419 C 340.391 556.651 341.376 557.669 341.376 558.681 C 341.376 559.694 340.391 560.711 339.188 560.943 C 337.653 561.239 337.001 560.564 337.001 558.681 Z M 374.717 559.107 C 374.96 557.842 375.996 556.806 377.018 556.806 C 379.697 556.806 379.31 560.438 376.575 560.965 C 374.904 561.287 374.395 560.778 374.717 559.107 Z M 383.876 559.931 C 382.829 558.238 384.241 556.181 386.449 556.181 C 387.44 556.181 388.251 557.306 388.251 558.681 C 388.251 561.269 385.235 562.131 383.876 559.931 Z M 393.467 559.107 C 393.71 557.842 394.746 556.806 395.768 556.806 C 398.447 556.806 398.06 560.438 395.325 560.965 C 393.654 561.287 393.145 560.778 393.467 559.107 Z M 402.558 559.822 C 402.096 559.075 402.295 557.886 403.001 557.181 C 404.578 555.604 407.001 556.936 407.001 559.38 C 407.001 561.484 403.784 561.805 402.558 559.822 Z M 430.751 558.681 C 430.751 556.798 431.403 556.123 432.938 556.419 C 435.777 556.966 435.777 560.396 432.938 560.943 C 431.403 561.239 430.751 560.564 430.751 558.681 Z M 449.717 559.107 C 450.243 556.372 453.876 555.985 453.876 558.664 C 453.876 559.686 452.84 560.721 451.575 560.965 C 449.904 561.287 449.395 560.778 449.717 559.107 Z M 458.876 559.931 C 457.829 558.238 459.241 556.181 461.449 556.181 C 462.44 556.181 463.251 557.306 463.251 558.681 C 463.251 561.269 460.235 562.131 458.876 559.931 Z M 281.61 551.624 C 279.893 549.906 280.783 547.254 282.938 547.669 C 284.141 547.901 285.126 548.88 285.126 549.844 C 285.126 551.818 282.92 552.934 281.61 551.624 Z M 289.904 550.43 C 288.946 547.932 291.986 545.863 294.072 547.594 C 295.963 549.164 294.87 552.431 292.453 552.431 C 291.473 552.431 290.327 551.531 289.904 550.43 Z M 299.501 549.931 C 299.501 548.048 300.153 547.373 301.688 547.669 C 302.891 547.901 303.876 548.919 303.876 549.931 C 303.876 550.944 302.891 551.961 301.688 552.193 C 300.153 552.489 299.501 551.814 299.501 549.931 Z M 308.251 550.005 C 308.251 546.639 310.615 545.51 312.893 547.788 C 315.172 550.066 314.043 552.431 310.677 552.431 C 309.108 552.431 308.251 551.573 308.251 550.005 Z M 317.834 550.648 C 316.926 548.284 319.735 546.031 321.912 547.376 C 323.982 548.656 322.777 552.431 320.299 552.431 C 319.319 552.431 318.21 551.628 317.834 550.648 Z M 327.666 551.247 C 326.567 549.469 327.969 547.431 330.291 547.431 C 331.386 547.431 332.014 548.309 331.78 549.515 C 331.293 552.026 328.797 553.077 327.666 551.247 Z M 336.301 551.061 C 335.199 549.278 338.848 545.63 340.631 546.732 C 341.384 547.198 342.001 548.67 342.001 550.005 C 342.001 552.66 337.774 553.443 336.301 551.061 Z M 346.416 551.247 C 345.317 549.469 346.719 547.431 349.041 547.431 C 350.136 547.431 350.764 548.309 350.53 549.515 C 350.043 552.026 347.547 553.077 346.416 551.247 Z M 356.61 551.624 C 354.893 549.907 355.783 547.254 357.938 547.669 C 359.141 547.901 360.126 548.88 360.126 549.844 C 360.126 551.818 357.92 552.934 356.61 551.624 Z M 365.28 550.509 C 364.486 548.437 367.309 546.702 369.386 547.985 C 371.039 549.007 369.683 552.431 367.626 552.431 C 366.741 552.431 365.686 551.566 365.28 550.509 Z M 382.943 550.869 C 382.013 548.338 383.29 546.181 385.721 546.181 C 388.152 546.181 389.47 548.338 388.587 550.869 C 388.287 551.728 387.024 552.431 385.78 552.431 C 384.536 552.431 383.259 551.728 382.943 550.869 Z M 392.834 550.648 C 391.926 548.284 394.735 546.031 396.912 547.376 C 398.982 548.656 397.777 552.431 395.299 552.431 C 394.319 552.431 393.21 551.628 392.834 550.648 Z M 401.584 550.648 C 400.539 547.926 404.041 545.493 406.301 547.369 C 408.576 549.258 407.447 552.431 404.501 552.431 C 403.273 552.431 401.96 551.628 401.584 550.648 Z M 411.376 551.181 C 410.356 549.531 411.722 547.431 413.816 547.431 C 415.644 547.431 417.274 550.491 416.081 551.684 C 414.915 552.85 412.229 552.563 411.376 551.181 Z M 420.051 551.061 C 419.586 550.308 420.061 548.835 421.108 547.788 C 423.386 545.51 425.751 546.639 425.751 550.005 C 425.751 552.66 421.524 553.443 420.051 551.061 Z M 431.61 551.624 C 429.893 549.907 430.783 547.254 432.938 547.669 C 434.141 547.901 435.126 548.88 435.126 549.844 C 435.126 551.818 432.92 552.934 431.61 551.624 Z M 439.501 550.005 C 439.501 546.639 441.865 545.51 444.143 547.788 C 446.422 550.066 445.293 552.431 441.927 552.431 C 440.358 552.431 439.501 551.573 439.501 550.005 Z M 448.801 551.061 C 447.699 549.278 451.348 545.63 453.131 546.732 C 453.884 547.198 454.501 548.67 454.501 550.005 C 454.501 552.66 450.274 553.443 448.801 551.061 Z M 374.501 549.306 C 374.501 548.264 375.612 547.431 377.001 547.431 C 378.389 547.431 379.501 548.264 379.501 549.306 C 379.501 550.348 378.389 551.181 377.001 551.181 C 375.612 551.181 374.501 550.348 374.501 549.306 Z M 458.489 548.994 C 458.72 547.79 459.738 546.806 460.751 546.806 C 461.763 546.806 462.781 547.79 463.013 548.994 C 463.308 550.528 462.633 551.181 460.751 551.181 C 458.868 551.181 458.193 550.528 458.489 548.994 Z M 299.663 542.002 C 297.932 539.916 300.001 536.876 302.499 537.835 C 303.6 538.257 304.501 539.404 304.501 540.383 C 304.501 542.8 301.233 543.894 299.663 542.002 Z M 309.813 542.802 C 307.677 542.01 307.836 537.858 310.034 537.014 C 311.015 536.638 312.514 537.168 313.364 538.193 C 314.603 539.686 314.559 540.388 313.143 541.719 C 312.171 542.633 310.672 543.121 309.813 542.802 Z M 337.081 541.902 C 335.14 539.564 336.371 537.431 339.661 537.431 C 341.53 537.431 342.072 538.127 341.775 540.146 C 341.276 543.538 339.11 544.348 337.081 541.902 Z M 355.689 541.732 C 354.53 540.335 354.53 539.527 355.689 538.13 C 357.577 535.855 360.751 536.984 360.751 539.931 C 360.751 542.878 357.577 544.007 355.689 541.732 Z M 374.581 541.902 C 372.64 539.564 373.871 537.431 377.161 537.431 C 379.03 537.431 379.572 538.127 379.275 540.146 C 378.776 543.538 376.61 544.348 374.581 541.902 Z M 403.563 542.802 C 401.427 542.01 401.586 537.858 403.784 537.014 C 404.765 536.638 406.264 537.168 407.114 538.193 C 408.353 539.686 408.309 540.388 406.893 541.719 C 405.921 542.633 404.422 543.121 403.563 542.802 Z M 412.081 541.902 C 410.14 539.564 411.371 537.431 414.661 537.431 C 416.53 537.431 417.072 538.127 416.775 540.146 C 416.276 543.538 414.11 544.348 412.081 541.902 Z M 458.598 542.279 C 456.696 540.376 458.004 537.431 460.751 537.431 C 463.497 537.431 464.805 540.376 462.903 542.279 C 462.132 543.05 461.163 543.681 460.751 543.681 C 460.338 543.681 459.37 543.05 458.598 542.279 Z M 280.967 540.357 C 281.21 539.092 282.246 538.056 283.268 538.056 C 285.947 538.056 285.56 541.688 282.825 542.215 C 281.154 542.537 280.645 542.028 280.967 540.357 Z M 289.739 540.244 C 289.97 539.04 290.988 538.056 292.001 538.056 C 293.013 538.056 294.031 539.04 294.263 540.244 C 294.558 541.778 293.883 542.431 292.001 542.431 C 290.118 542.431 289.443 541.778 289.739 540.244 Z M 318.489 540.244 C 318.72 539.04 319.738 538.056 320.751 538.056 C 321.763 538.056 322.781 539.04 323.013 540.244 C 323.308 541.778 322.633 542.431 320.751 542.431 C 318.868 542.431 318.193 541.778 318.489 540.244 Z M 327.239 540.244 C 327.785 537.405 331.216 537.405 331.763 540.244 C 332.058 541.778 331.383 542.431 329.501 542.431 C 327.618 542.431 326.943 541.778 327.239 540.244 Z M 346.376 541.181 C 345.329 539.488 346.741 537.431 348.949 537.431 C 349.94 537.431 350.751 538.556 350.751 539.931 C 350.751 542.519 347.735 543.381 346.376 541.181 Z M 365.058 541.072 C 364.596 540.325 364.795 539.136 365.501 538.431 C 367.078 536.854 369.501 538.186 369.501 540.63 C 369.501 542.734 366.284 543.055 365.058 541.072 Z M 383.808 541.072 C 383.346 540.325 383.545 539.136 384.251 538.431 C 385.828 536.854 388.251 538.186 388.251 540.63 C 388.251 542.734 385.034 543.055 383.808 541.072 Z M 393.489 540.244 C 394.02 537.485 396.243 537.545 396.78 540.332 C 397.026 541.611 396.38 542.431 395.126 542.431 C 393.838 542.431 393.225 541.612 393.489 540.244 Z M 422.001 539.931 C 422.001 538.048 422.653 537.373 424.188 537.669 C 427.027 538.216 427.027 541.646 424.188 542.193 C 422.653 542.489 422.001 541.814 422.001 539.931 Z M 430.751 539.931 C 430.751 538.264 431.584 537.431 433.251 537.431 C 434.917 537.431 435.751 538.264 435.751 539.931 C 435.751 541.598 434.917 542.431 433.251 542.431 C 431.584 542.431 430.751 541.598 430.751 539.931 Z M 440.126 541.181 C 439.079 539.488 440.491 537.431 442.699 537.431 C 443.69 537.431 444.501 538.556 444.501 539.931 C 444.501 542.519 441.485 543.381 440.126 541.181 Z M 449.501 539.931 C 449.501 538.264 450.334 537.431 452.001 537.431 C 453.667 537.431 454.501 538.264 454.501 539.931 C 454.501 541.598 453.667 542.431 452.001 542.431 C 450.334 542.431 449.501 541.598 449.501 539.931 Z M 375.334 534.098 C 373.502 532.266 374.557 528.681 376.927 528.681 C 380.118 528.681 381.346 530.833 379.455 533.111 C 377.805 535.099 376.619 535.383 375.334 534.098 Z M 280.334 531.897 C 279.426 529.534 282.235 527.281 284.412 528.626 C 286.482 529.906 285.277 533.681 282.799 533.681 C 281.819 533.681 280.71 532.878 280.334 531.897 Z M 290.126 532.431 C 289.079 530.738 290.491 528.681 292.699 528.681 C 293.69 528.681 294.501 529.806 294.501 531.181 C 294.501 533.769 291.485 534.631 290.126 532.431 Z M 299.501 531.181 C 299.501 529.298 300.153 528.623 301.688 528.919 C 302.891 529.151 303.876 530.169 303.876 531.181 C 303.876 532.194 302.891 533.211 301.688 533.443 C 300.153 533.739 299.501 533.064 299.501 531.181 Z M 308.916 532.497 C 307.817 530.719 309.219 528.681 311.541 528.681 C 312.636 528.681 313.264 529.559 313.03 530.765 C 312.543 533.276 310.047 534.327 308.916 532.497 Z M 317.404 531.68 C 316.339 528.903 319.668 527.064 321.836 529.231 C 322.777 530.172 323.165 531.558 322.7 532.311 C 321.442 534.346 318.283 533.969 317.404 531.68 Z M 336.301 532.311 C 335.199 530.528 338.848 526.88 340.631 527.982 C 341.384 528.448 342.001 529.92 342.001 531.255 C 342.001 533.91 337.774 534.693 336.301 532.311 Z M 346.53 531.759 C 345.736 529.687 348.559 527.952 350.636 529.235 C 352.289 530.257 350.933 533.681 348.876 533.681 C 347.991 533.681 346.936 532.816 346.53 531.759 Z M 355.051 532.311 C 353.949 530.528 357.598 526.88 359.381 527.982 C 360.134 528.448 360.751 529.92 360.751 531.255 C 360.751 533.91 356.524 534.693 355.051 532.311 Z M 364.501 531.255 C 364.501 527.889 366.865 526.76 369.143 529.038 C 371.422 531.316 370.293 533.681 366.927 533.681 C 365.358 533.681 364.501 532.823 364.501 531.255 Z M 384.813 532.796 C 382.633 531.996 382.86 529.098 385.173 528.211 C 386.287 527.783 387.408 528.288 387.839 529.411 C 388.72 531.706 387.022 533.606 384.813 532.796 Z M 394.05 532.814 C 392.556 531.32 393.243 528.681 395.126 528.681 C 396.157 528.681 397.001 529.492 397.001 530.482 C 397.001 532.571 395.216 533.98 394.05 532.814 Z M 403.268 532.442 C 400.999 531.039 402.751 527.152 405.42 527.666 C 406.617 527.896 407.772 528.992 407.985 530.101 C 408.442 532.474 405.601 533.884 403.268 532.442 Z M 412.834 532.848 C 411.002 531.016 412.057 527.431 414.427 527.431 C 417.372 527.431 418.52 529.025 417.496 531.693 C 416.713 533.734 414.314 534.328 412.834 532.848 Z M 429.956 531.814 C 429.523 530.686 429.768 529.164 430.501 528.431 C 432.405 526.527 436.014 528.267 435.516 530.85 C 434.962 533.728 430.957 534.422 429.956 531.814 Z M 439.501 531.273 C 439.501 529.484 440.303 528.681 442.092 528.681 C 445.296 528.681 444.932 532.818 441.674 533.446 C 440.174 533.735 439.501 533.062 439.501 531.273 Z M 450.36 532.874 C 448.643 531.157 449.533 528.504 451.688 528.919 C 452.891 529.151 453.876 530.13 453.876 531.094 C 453.876 533.068 451.67 534.184 450.36 532.874 Z M 458.654 531.68 C 457.696 529.182 460.736 527.113 462.822 528.844 C 464.713 530.414 463.62 533.681 461.203 533.681 C 460.223 533.681 459.077 532.781 458.654 531.68 Z M 327.239 530.244 C 327.785 527.405 331.216 527.405 331.763 530.244 C 332.058 531.778 331.383 532.431 329.501 532.431 C 327.618 532.431 326.943 531.778 327.239 530.244 Z M 420.989 530.244 C 421.535 527.405 424.966 527.405 425.513 530.244 C 425.808 531.778 425.133 532.431 423.251 532.431 C 421.368 532.431 420.693 531.778 420.989 530.244 Z M 280.831 523.152 C 278.89 520.814 280.121 518.681 283.411 518.681 C 285.28 518.681 285.822 519.377 285.525 521.396 C 285.026 524.788 282.86 525.598 280.831 523.152 Z M 290.334 524.098 C 288.502 522.266 289.557 518.681 291.927 518.681 C 295.118 518.681 296.346 520.833 294.455 523.111 C 292.805 525.099 291.619 525.383 290.334 524.098 Z M 309.084 524.098 C 307.252 522.266 308.307 518.681 310.677 518.681 C 313.868 518.681 315.096 520.833 313.205 523.111 C 311.555 525.099 310.369 525.383 309.084 524.098 Z M 319.11 524.124 C 317.341 522.354 318.342 519.931 320.842 519.931 C 322.59 519.931 323.302 520.61 323.03 522.015 C 322.584 524.316 320.45 525.464 319.11 524.124 Z M 328.145 522.929 C 327.034 521.591 326.986 520.696 327.97 519.712 C 329.696 517.986 333.251 519.279 333.251 521.633 C 333.251 524.238 329.931 525.08 328.145 522.929 Z M 365.839 523.736 C 363.769 522.457 364.974 518.681 367.453 518.681 C 368.432 518.681 369.541 519.484 369.918 520.465 C 370.825 522.829 368.016 525.081 365.839 523.736 Z M 374.663 523.252 C 372.932 521.166 375.001 518.126 377.499 519.085 C 378.6 519.507 379.501 520.654 379.501 521.633 C 379.501 524.05 376.233 525.144 374.663 523.252 Z M 403.563 524.052 C 401.427 523.26 401.586 519.108 403.784 518.264 C 404.765 517.888 406.264 518.418 407.114 519.443 C 408.353 520.936 408.309 521.637 406.893 522.969 C 405.921 523.883 404.422 524.371 403.563 524.052 Z M 412.86 524.124 C 411.091 522.354 412.092 519.931 414.592 519.931 C 416.34 519.931 417.052 520.61 416.78 522.015 C 416.334 524.316 414.2 525.464 412.86 524.124 Z M 421.584 524.098 C 419.752 522.266 420.807 518.681 423.177 518.681 C 426.368 518.681 427.596 520.833 425.705 523.111 C 424.055 525.099 422.869 525.383 421.584 524.098 Z M 449.439 522.982 C 448.28 521.585 448.28 520.777 449.439 519.38 C 451.327 517.105 454.501 518.234 454.501 521.181 C 454.501 524.128 451.327 525.257 449.439 522.982 Z M 459.589 523.736 C 457.519 522.457 458.724 518.681 461.203 518.681 C 462.182 518.681 463.291 519.484 463.668 520.465 C 464.575 522.829 461.766 525.081 459.589 523.736 Z M 299.17 522.934 C 297.997 521.76 299.594 518.681 301.376 518.681 C 303.158 518.681 304.755 521.76 303.581 522.934 C 303.17 523.345 302.178 523.681 301.376 523.681 C 300.573 523.681 299.581 523.345 299.17 522.934 Z M 337.217 521.607 C 337.46 520.342 338.496 519.306 339.518 519.306 C 342.197 519.306 341.81 522.938 339.075 523.465 C 337.404 523.787 336.895 523.278 337.217 521.607 Z M 346.376 522.431 C 345.329 520.738 346.741 518.681 348.949 518.681 C 349.94 518.681 350.751 519.806 350.751 521.181 C 350.751 523.769 347.735 524.631 346.376 522.431 Z M 355.751 521.181 C 355.751 519.298 356.403 518.623 357.938 518.919 C 360.777 519.466 360.777 522.896 357.938 523.443 C 356.403 523.739 355.751 523.064 355.751 521.181 Z M 383.808 522.322 C 383.346 521.575 383.545 520.386 384.251 519.681 C 385.828 518.104 388.251 519.436 388.251 521.88 C 388.251 523.984 385.034 524.305 383.808 522.322 Z M 393.467 521.607 C 393.71 520.342 394.746 519.306 395.768 519.306 C 398.447 519.306 398.06 522.938 395.325 523.465 C 393.654 523.787 393.145 523.278 393.467 521.607 Z M 430.989 521.494 C 431.535 518.655 434.966 518.655 435.513 521.494 C 435.808 523.028 435.133 523.681 433.251 523.681 C 431.368 523.681 430.693 523.028 430.989 521.494 Z M 440.751 521.181 C 440.751 519.298 441.403 518.623 442.938 518.919 C 444.141 519.151 445.126 520.169 445.126 521.181 C 445.126 522.194 444.141 523.211 442.938 523.443 C 441.403 523.739 440.751 523.064 440.751 521.181 Z M 291.063 515.302 C 288.927 514.51 289.086 510.358 291.284 509.514 C 292.265 509.138 293.764 509.668 294.614 510.693 C 295.853 512.186 295.809 512.888 294.393 514.219 C 293.421 515.133 291.922 515.621 291.063 515.302 Z M 336.939 514.232 C 335.78 512.835 335.78 512.027 336.939 510.63 C 338.827 508.355 342.001 509.484 342.001 512.431 C 342.001 515.378 338.827 516.507 336.939 514.232 Z M 281.61 514.124 C 279.893 512.407 280.783 509.754 282.938 510.169 C 284.141 510.401 285.126 511.38 285.126 512.344 C 285.126 514.318 282.92 515.434 281.61 514.124 Z M 299.501 512.431 C 299.501 510.548 300.153 509.873 301.688 510.169 C 302.891 510.401 303.876 511.419 303.876 512.431 C 303.876 513.444 302.891 514.461 301.688 514.693 C 300.153 514.989 299.501 514.314 299.501 512.431 Z M 308.251 512.505 C 308.251 509.139 310.615 508.01 312.893 510.288 C 315.172 512.566 314.043 514.931 310.677 514.931 C 309.108 514.931 308.251 514.073 308.251 512.505 Z M 319.11 514.124 C 317.341 512.354 318.342 509.931 320.842 509.931 C 322.59 509.931 323.302 510.61 323.03 512.015 C 322.584 514.316 320.45 515.464 319.11 514.124 Z M 327.86 514.124 C 326.091 512.354 327.092 509.931 329.592 509.931 C 331.34 509.931 332.052 510.61 331.78 512.015 C 331.334 514.316 329.2 515.464 327.86 514.124 Z M 346.154 512.93 C 345.196 510.432 348.236 508.363 350.322 510.094 C 352.213 511.664 351.12 514.931 348.703 514.931 C 347.723 514.931 346.577 514.031 346.154 512.93 Z M 356.61 514.124 C 354.841 512.354 355.842 509.931 358.342 509.931 C 360.09 509.931 360.802 510.61 360.53 512.015 C 360.084 514.316 357.95 515.464 356.61 514.124 Z M 365.166 513.747 C 364.067 511.969 365.469 509.931 367.791 509.931 C 368.886 509.931 369.514 510.809 369.28 512.015 C 368.793 514.526 366.297 515.577 365.166 513.747 Z M 375.36 514.124 C 373.591 512.354 374.592 509.931 377.092 509.931 C 378.84 509.931 379.552 510.61 379.28 512.015 C 378.834 514.316 376.7 515.464 375.36 514.124 Z M 383.876 513.681 C 382.829 511.988 384.241 509.931 386.449 509.931 C 387.44 509.931 388.251 511.056 388.251 512.431 C 388.251 515.019 385.235 515.881 383.876 513.681 Z M 392.834 513.148 C 391.926 510.784 394.735 508.531 396.912 509.876 C 398.982 511.156 397.777 514.931 395.299 514.931 C 394.319 514.931 393.21 514.128 392.834 513.148 Z M 402.601 513.641 C 402.116 512.856 402.307 511.625 403.025 510.906 C 404.705 509.226 408.622 510.692 407.938 512.744 C 407.243 514.834 403.705 515.428 402.601 513.641 Z M 411.584 513.148 C 410.539 510.426 414.041 507.993 416.301 509.869 C 418.576 511.758 417.447 514.931 414.501 514.931 C 413.273 514.931 411.96 514.128 411.584 513.148 Z M 421.416 513.747 C 420.317 511.969 421.719 509.931 424.041 509.931 C 425.136 509.931 425.764 510.809 425.53 512.015 C 425.043 514.526 422.547 515.577 421.416 513.747 Z M 431.61 514.124 C 429.893 512.407 430.783 509.754 432.938 510.169 C 434.141 510.401 435.126 511.38 435.126 512.344 C 435.126 514.318 432.92 515.434 431.61 514.124 Z M 439.501 512.505 C 439.501 509.139 441.865 508.01 444.143 510.288 C 446.422 512.566 445.293 514.931 441.927 514.931 C 440.358 514.931 439.501 514.073 439.501 512.505 Z M 449.501 512.431 C 449.501 510.764 450.334 509.931 452.001 509.931 C 453.667 509.931 454.501 510.764 454.501 512.431 C 454.501 514.098 453.667 514.931 452.001 514.931 C 450.334 514.931 449.501 514.098 449.501 512.431 Z M 458.916 513.747 C 457.817 511.969 459.219 509.931 461.541 509.931 C 462.636 509.931 463.264 510.809 463.03 512.015 C 462.543 514.526 460.047 515.577 458.916 513.747 Z M 309.084 505.348 C 307.252 503.516 308.307 499.931 310.677 499.931 C 313.868 499.931 315.096 502.083 313.205 504.361 C 311.555 506.349 310.369 506.633 309.084 505.348 Z M 328.339 504.986 C 326.269 503.707 327.474 499.931 329.953 499.931 C 330.932 499.931 332.041 500.734 332.418 501.715 C 333.325 504.079 330.516 506.331 328.339 504.986 Z M 337.081 504.402 C 335.14 502.064 336.371 499.931 339.661 499.931 C 341.53 499.931 342.072 500.627 341.775 502.646 C 341.276 506.038 339.11 506.848 337.081 504.402 Z M 355.913 504.502 C 354.182 502.416 356.251 499.376 358.749 500.335 C 359.85 500.757 360.751 501.904 360.751 502.883 C 360.751 505.3 357.483 506.394 355.913 504.502 Z M 384.589 504.986 C 382.519 503.707 383.724 499.931 386.203 499.931 C 387.182 499.931 388.291 500.734 388.668 501.715 C 389.575 504.079 386.766 506.331 384.589 504.986 Z M 402.511 504.458 C 401.499 501.822 402.919 499.931 405.911 499.931 C 407.8 499.931 408.325 500.627 408.025 502.731 C 407.559 505.998 403.58 507.245 402.511 504.458 Z M 412.42 504.222 C 411.379 501.507 414.023 498.954 415.917 500.847 C 417.517 502.447 416.525 506.181 414.501 506.181 C 413.77 506.181 412.834 505.3 412.42 504.222 Z M 429.92 504.222 C 429.507 503.145 429.768 501.664 430.501 500.931 C 432.445 498.987 435.751 500.694 435.751 503.642 C 435.751 506.725 431.06 507.191 429.92 504.222 Z M 440.334 505.348 C 438.502 503.516 439.557 499.931 441.927 499.931 C 445.118 499.931 446.346 502.083 444.455 504.361 C 442.805 506.349 441.619 506.633 440.334 505.348 Z M 280.42 504.184 C 279.247 503.01 280.844 499.931 282.626 499.931 C 284.408 499.931 286.005 503.01 284.831 504.184 C 284.42 504.595 283.428 504.931 282.626 504.931 C 281.823 504.931 280.831 504.595 280.42 504.184 Z M 290.058 503.572 C 288.967 501.807 291.377 499.398 293.142 500.489 C 295.124 501.714 294.804 504.931 292.699 504.931 C 291.709 504.931 290.52 504.32 290.058 503.572 Z M 299.717 502.857 C 300.243 500.122 303.876 499.735 303.876 502.414 C 303.876 503.436 302.84 504.471 301.575 504.715 C 299.904 505.037 299.395 504.528 299.717 502.857 Z M 318.467 502.857 C 318.993 500.122 322.626 499.735 322.626 502.414 C 322.626 503.436 321.59 504.471 320.325 504.715 C 318.654 505.037 318.145 504.528 318.467 502.857 Z M 346.376 503.681 C 345.329 501.988 346.741 499.931 348.949 499.931 C 349.94 499.931 350.751 501.056 350.751 502.431 C 350.751 505.019 347.735 505.881 346.376 503.681 Z M 365.058 503.572 C 363.967 501.807 366.377 499.398 368.142 500.489 C 368.889 500.951 369.501 502.139 369.501 503.13 C 369.501 505.234 366.284 505.555 365.058 503.572 Z M 374.739 502.744 C 374.97 501.54 375.988 500.556 377.001 500.556 C 378.013 500.556 379.031 501.54 379.263 502.744 C 379.558 504.278 378.883 504.931 377.001 504.931 C 375.118 504.931 374.443 504.278 374.739 502.744 Z M 393.489 502.744 C 393.72 501.54 394.738 500.556 395.751 500.556 C 396.763 500.556 397.781 501.54 398.013 502.744 C 398.308 504.278 397.633 504.931 395.751 504.931 C 393.868 504.931 393.193 504.278 393.489 502.744 Z M 422.239 502.744 C 422.77 499.985 424.993 500.045 425.53 502.832 C 425.776 504.111 425.13 504.931 423.876 504.931 C 422.588 504.931 421.975 504.112 422.239 502.744 Z M 449.739 502.744 C 449.97 501.54 450.988 500.556 452.001 500.556 C 453.013 500.556 454.031 501.54 454.263 502.744 C 454.558 504.278 453.883 504.931 452.001 504.931 C 450.118 504.931 449.443 504.278 449.739 502.744 Z M 459.084 504.098 C 457.363 502.377 458.342 499.931 460.751 499.931 C 462.417 499.931 463.251 500.764 463.251 502.431 C 463.251 504.84 460.805 505.818 459.084 504.098 Z M 411.939 495.482 C 410.78 494.085 410.78 493.277 411.939 491.88 C 413.827 489.605 417.001 490.734 417.001 493.681 C 417.001 496.628 413.827 497.757 411.939 495.482 Z M 279.956 494.314 C 279.523 493.186 279.768 491.664 280.501 490.931 C 282.405 489.027 286.014 490.767 285.516 493.35 C 284.962 496.228 280.956 496.922 279.956 494.314 Z M 289.904 494.18 C 288.946 491.682 291.986 489.613 294.072 491.344 C 295.963 492.914 294.87 496.181 292.453 496.181 C 291.473 496.181 290.327 495.281 289.904 494.18 Z M 298.801 494.811 C 297.699 493.028 301.348 489.38 303.131 490.482 C 305.513 491.954 304.729 496.181 302.074 496.181 C 300.74 496.181 299.267 495.565 298.801 494.811 Z M 308.876 494.931 C 307.829 493.238 309.241 491.181 311.449 491.181 C 312.44 491.181 313.251 492.306 313.251 493.681 C 313.251 496.269 310.235 497.131 308.876 494.931 Z M 319.11 495.374 C 317.393 493.656 318.283 491.004 320.438 491.419 C 321.641 491.651 322.626 492.63 322.626 493.594 C 322.626 495.568 320.42 496.684 319.11 495.374 Z M 327.42 494.222 C 326.379 491.507 329.023 488.954 330.917 490.847 C 332.517 492.447 331.525 496.181 329.501 496.181 C 328.77 496.181 327.834 495.3 327.42 494.222 Z M 336.584 494.397 C 335.676 492.034 338.485 489.781 340.662 491.126 C 342.732 492.406 341.527 496.181 339.049 496.181 C 338.069 496.181 336.96 495.378 336.584 494.397 Z M 346.627 495.391 C 346.145 494.909 345.751 493.444 345.751 492.136 C 345.751 490.384 346.492 489.862 348.563 490.157 C 350.402 490.418 351.376 491.416 351.376 493.039 C 351.376 495.518 348.285 497.049 346.627 495.391 Z M 356.17 494.222 C 355.129 491.507 357.773 488.954 359.667 490.847 C 361.267 492.447 360.275 496.181 358.251 496.181 C 357.52 496.181 356.584 495.3 356.17 494.222 Z M 364.084 494.397 C 363.039 491.676 366.541 489.243 368.801 491.119 C 371.076 493.008 369.947 496.181 367.001 496.181 C 365.773 496.181 364.46 495.378 364.084 494.397 Z M 375.36 495.374 C 373.643 493.656 374.533 491.004 376.688 491.419 C 377.891 491.651 378.876 492.63 378.876 493.594 C 378.876 495.568 376.67 496.684 375.36 495.374 Z M 382.834 494.397 C 381.789 491.676 385.291 489.243 387.551 491.119 C 389.826 493.008 388.697 496.181 385.751 496.181 C 384.523 496.181 383.21 495.378 382.834 494.397 Z M 392.551 494.811 C 391.449 493.028 395.098 489.38 396.881 490.482 C 399.263 491.954 398.479 496.181 395.824 496.181 C 394.49 496.181 393.017 495.565 392.551 494.811 Z M 402.404 494.18 C 401.446 491.682 404.486 489.613 406.572 491.344 C 408.463 492.914 407.37 496.181 404.953 496.181 C 403.973 496.181 402.827 495.281 402.404 494.18 Z M 421.53 494.259 C 420.736 492.187 423.559 490.452 425.636 491.735 C 427.289 492.757 425.933 496.181 423.876 496.181 C 422.991 496.181 421.936 495.316 421.53 494.259 Z M 431.61 495.374 C 429.841 493.604 430.842 491.181 433.342 491.181 C 435.09 491.181 435.802 491.86 435.53 493.265 C 435.084 495.566 432.95 496.714 431.61 495.374 Z M 440.166 494.997 C 439.067 493.219 440.469 491.181 442.791 491.181 C 443.886 491.181 444.514 492.059 444.28 493.265 C 443.793 495.776 441.297 496.826 440.166 494.997 Z M 449.501 493.681 C 449.501 492.014 450.334 491.181 452.001 491.181 C 453.667 491.181 454.501 492.014 454.501 493.681 C 454.501 495.348 453.667 496.181 452.001 496.181 C 450.334 496.181 449.501 495.348 449.501 493.681 Z M 458.706 494.314 C 458.273 493.186 458.518 491.664 459.251 490.931 C 461.155 489.027 464.764 490.767 464.266 493.35 C 463.712 496.228 459.707 496.922 458.706 494.314 Z M 290.334 486.598 C 288.502 484.766 289.557 481.181 291.927 481.181 C 295.118 481.181 296.346 483.333 294.455 485.611 C 292.805 487.599 291.619 487.883 290.334 486.598 Z M 299.581 485.652 C 297.64 483.314 298.871 481.181 302.161 481.181 C 304.03 481.181 304.572 481.877 304.275 483.896 C 303.776 487.288 301.61 488.098 299.581 485.652 Z M 318.717 485.595 C 318.339 484.608 318.378 483.236 318.805 482.546 C 319.827 480.892 323.251 482.248 323.251 484.306 C 323.251 486.655 319.53 487.712 318.717 485.595 Z M 328.563 486.552 C 326.427 485.76 326.586 481.608 328.784 480.764 C 329.765 480.388 331.264 480.918 332.114 481.943 C 333.353 483.436 333.309 484.138 331.893 485.469 C 330.921 486.383 329.422 486.871 328.563 486.552 Z M 337.348 486.029 C 335.446 484.126 336.754 481.181 339.501 481.181 C 342.247 481.181 343.555 484.126 341.653 486.029 C 340.882 486.8 339.913 487.431 339.501 487.431 C 339.088 487.431 338.12 486.8 337.348 486.029 Z M 355.689 485.482 C 354.53 484.085 354.53 483.277 355.689 481.88 C 357.577 479.605 360.751 480.734 360.751 483.681 C 360.751 486.628 357.577 487.757 355.689 485.482 Z M 374.084 485.647 C 373.13 483.164 376.665 480.345 378.47 482.15 C 380.196 483.876 378.902 487.431 376.549 487.431 C 375.569 487.431 374.46 486.628 374.084 485.647 Z M 393.413 485.752 C 391.682 483.666 393.751 480.626 396.249 481.585 C 397.35 482.007 398.251 483.154 398.251 484.133 C 398.251 486.55 394.983 487.644 393.413 485.752 Z M 412.348 486.029 C 410.446 484.126 411.754 481.181 414.501 481.181 C 417.247 481.181 418.555 484.126 416.653 486.029 C 415.882 486.8 414.913 487.431 414.501 487.431 C 414.088 487.431 413.12 486.8 412.348 486.029 Z M 430.901 485.737 C 429.812 484.425 429.882 483.671 431.194 482.582 C 432.507 481.492 433.261 481.562 434.35 482.875 C 435.439 484.187 435.369 484.941 434.057 486.031 C 432.744 487.12 431.99 487.05 430.901 485.737 Z M 450.36 486.624 C 448.591 484.854 449.592 482.431 452.092 482.431 C 453.84 482.431 454.552 483.11 454.28 484.515 C 453.834 486.816 451.7 487.964 450.36 486.624 Z M 280.751 483.681 C 280.751 482.014 281.584 481.181 283.251 481.181 C 284.917 481.181 285.751 482.014 285.751 483.681 C 285.751 485.348 284.917 486.181 283.251 486.181 C 281.584 486.181 280.751 485.348 280.751 483.681 Z M 308.876 484.931 C 307.829 483.238 309.241 481.181 311.449 481.181 C 312.44 481.181 313.251 482.306 313.251 483.681 C 313.251 486.269 310.235 487.131 308.876 484.931 Z M 346.351 484.891 C 345.866 484.106 346.057 482.875 346.775 482.156 C 348.455 480.476 352.372 481.942 351.688 483.994 C 350.993 486.084 347.455 486.678 346.351 484.891 Z M 365.751 483.681 C 365.751 481.798 366.403 481.123 367.938 481.419 C 370.777 481.966 370.777 485.396 367.938 485.943 C 366.403 486.239 365.751 485.564 365.751 483.681 Z M 383.876 484.931 C 382.829 483.238 384.241 481.181 386.449 481.181 C 387.44 481.181 388.251 482.306 388.251 483.681 C 388.251 486.269 385.235 487.131 383.876 484.931 Z M 402.601 484.891 C 402.116 484.106 402.307 482.875 403.025 482.156 C 404.705 480.476 408.622 481.942 407.938 483.994 C 407.243 486.084 403.705 486.678 402.601 484.891 Z M 421.618 485.382 C 420.451 484.215 421.861 482.431 423.949 482.431 C 424.94 482.431 425.751 483.275 425.751 484.306 C 425.751 486.189 423.112 486.876 421.618 485.382 Z M 439.501 483.755 C 439.501 480.389 441.865 479.26 444.143 481.538 C 446.422 483.816 445.293 486.181 441.927 486.181 C 440.358 486.181 439.501 485.323 439.501 483.755 Z M 459.501 483.681 C 459.501 481.798 460.153 481.123 461.688 481.419 C 462.891 481.651 463.876 482.669 463.876 483.681 C 463.876 484.693 462.891 485.711 461.688 485.943 C 460.153 486.239 459.501 485.564 459.501 483.681 Z M 459.631 477.537 C 457.192 475.994 458.879 472.431 462.048 472.431 C 464.033 472.431 464.577 473.094 464.275 475.146 C 463.816 478.263 462.142 479.125 459.631 477.537 Z M 280.751 474.306 C 280.751 471.6 281.256 471.079 283.563 471.407 C 287.419 471.954 287.419 476.658 283.563 477.206 C 281.256 477.533 280.751 477.012 280.751 474.306 Z M 290.166 476.247 C 289.067 474.469 290.469 472.431 292.791 472.431 C 293.886 472.431 294.514 473.309 294.28 474.515 C 293.793 477.026 291.297 478.077 290.166 476.247 Z M 299.084 475.647 C 298.039 472.926 301.541 470.493 303.801 472.369 C 306.076 474.258 304.947 477.431 302.001 477.431 C 300.773 477.431 299.46 476.628 299.084 475.647 Z M 308.916 476.247 C 307.817 474.469 309.219 472.431 311.541 472.431 C 312.636 472.431 313.264 473.309 313.03 474.515 C 312.543 477.026 310.047 478.077 308.916 476.247 Z M 317.834 475.647 C 316.926 473.284 319.735 471.031 321.912 472.376 C 323.982 473.656 322.777 477.431 320.299 477.431 C 319.319 477.431 318.21 476.628 317.834 475.647 Z M 329.05 476.564 C 327.556 475.07 328.243 472.431 330.126 472.431 C 331.157 472.431 332.001 473.242 332.001 474.232 C 332.001 476.321 330.216 477.73 329.05 476.564 Z M 337.467 475.595 C 337.089 474.608 337.128 473.236 337.555 472.546 C 338.577 470.892 342.001 472.248 342.001 474.306 C 342.001 476.655 338.28 477.712 337.468 475.595 Z M 356.61 476.624 C 354.893 474.906 355.783 472.254 357.938 472.669 C 359.141 472.901 360.126 473.88 360.126 474.844 C 360.126 476.818 357.92 477.934 356.61 476.624 Z M 364.501 475.005 C 364.501 471.639 366.865 470.51 369.143 472.788 C 371.422 475.066 370.293 477.431 366.927 477.431 C 365.358 477.431 364.501 476.573 364.501 475.005 Z M 373.876 476.181 C 372.829 474.488 374.241 472.431 376.449 472.431 C 377.44 472.431 378.251 473.556 378.251 474.931 C 378.251 477.519 375.235 478.381 373.876 476.181 Z M 383.876 476.181 C 382.829 474.488 384.241 472.431 386.449 472.431 C 387.44 472.431 388.251 473.556 388.251 474.931 C 388.251 477.519 385.235 478.381 383.876 476.181 Z M 394.11 476.624 C 392.393 474.906 393.283 472.254 395.438 472.669 C 396.641 472.901 397.626 473.88 397.626 474.844 C 397.626 476.818 395.42 477.934 394.11 476.624 Z M 402.666 476.247 C 401.567 474.469 402.969 472.431 405.291 472.431 C 406.386 472.431 407.014 473.309 406.78 474.515 C 406.293 477.026 403.797 478.077 402.666 476.247 Z M 411.53 475.509 C 410.736 473.437 413.559 471.702 415.636 472.985 C 417.289 474.007 415.933 477.431 413.876 477.431 C 412.991 477.431 411.936 476.566 411.53 475.509 Z M 421.154 475.43 C 420.196 472.932 423.236 470.863 425.322 472.594 C 427.213 474.164 426.12 477.431 423.703 477.431 C 422.723 477.431 421.577 476.531 421.154 475.43 Z M 430.28 475.509 C 429.486 473.437 432.309 471.702 434.386 472.985 C 436.039 474.007 434.683 477.431 432.626 477.431 C 431.741 477.431 430.686 476.566 430.28 475.509 Z M 439.912 475.451 C 439.017 473.117 441.239 470.563 443.142 471.739 C 445.126 472.965 444.801 475.798 442.578 476.651 C 441.464 477.079 440.343 476.574 439.912 475.451 Z M 448.801 476.061 C 447.699 474.278 451.348 470.63 453.131 471.732 C 453.884 472.198 454.501 473.67 454.501 475.005 C 454.501 477.66 450.274 478.443 448.801 476.061 Z M 346.618 475.382 C 345.451 474.215 346.861 472.431 348.949 472.431 C 349.94 472.431 350.751 473.275 350.751 474.306 C 350.751 476.189 348.112 476.876 346.618 475.382 Z M 318.717 466.845 C 318.339 465.858 318.378 464.486 318.805 463.796 C 319.827 462.142 323.251 463.498 323.251 465.556 C 323.251 467.905 319.53 468.962 318.717 466.845 Z M 328.401 466.987 C 327.312 465.675 327.382 464.921 328.694 463.832 C 330.007 462.742 330.761 462.812 331.85 464.125 C 332.939 465.437 332.869 466.191 331.557 467.281 C 330.244 468.37 329.49 468.3 328.401 466.987 Z M 346.261 466.958 C 345.249 464.322 346.669 462.431 349.661 462.431 C 351.55 462.431 352.075 463.127 351.775 465.231 C 351.309 468.498 347.33 469.745 346.261 466.958 Z M 374.581 466.902 C 372.64 464.564 373.871 462.431 377.161 462.431 C 379.03 462.431 379.572 463.127 379.275 465.146 C 378.776 468.538 376.61 469.348 374.581 466.902 Z M 384.084 467.848 C 382.252 466.016 383.307 462.431 385.677 462.431 C 388.868 462.431 390.096 464.583 388.205 466.861 C 386.555 468.849 385.369 469.133 384.084 467.848 Z M 393.331 466.902 C 391.39 464.564 392.621 462.431 395.911 462.431 C 397.78 462.431 398.322 463.127 398.025 465.146 C 397.526 468.538 395.36 469.348 393.331 466.902 Z M 441.063 467.802 C 438.927 467.01 439.086 462.858 441.284 462.014 C 442.265 461.638 443.764 462.168 444.614 463.193 C 445.853 464.686 445.809 465.387 444.393 466.719 C 443.421 467.633 441.922 468.121 441.063 467.802 Z M 449.848 467.279 C 447.946 465.376 449.254 462.431 452.001 462.431 C 454.747 462.431 456.055 465.376 454.153 467.279 C 453.382 468.05 452.413 468.681 452.001 468.681 C 451.588 468.681 450.62 468.05 449.848 467.279 Z M 459.148 467.067 C 458.782 466.111 458.936 464.595 459.49 463.698 C 460.892 461.429 464.78 463.181 464.266 465.85 C 463.746 468.549 460.054 469.426 459.148 467.067 Z M 280.967 465.357 C 281.493 462.622 285.126 462.235 285.126 464.914 C 285.126 465.936 284.09 466.971 282.825 467.215 C 281.154 467.537 280.645 467.028 280.967 465.357 Z M 290.126 466.181 C 289.079 464.488 290.491 462.431 292.699 462.431 C 293.69 462.431 294.501 463.556 294.501 464.931 C 294.501 467.519 291.485 468.381 290.126 466.181 Z M 299.717 465.357 C 300.243 462.622 303.876 462.235 303.876 464.914 C 303.876 465.936 302.84 466.971 301.575 467.215 C 299.904 467.537 299.395 467.028 299.717 465.357 Z M 308.808 466.072 C 308.346 465.325 308.545 464.136 309.251 463.431 C 310.828 461.854 313.251 463.186 313.251 465.63 C 313.251 467.734 310.034 468.055 308.808 466.072 Z M 337.001 464.931 C 337.001 463.048 337.653 462.373 339.188 462.669 C 340.391 462.901 341.376 463.919 341.376 464.931 C 341.376 465.944 340.391 466.961 339.188 467.193 C 337.653 467.489 337.001 466.814 337.001 464.931 Z M 355.967 465.357 C 356.493 462.622 360.126 462.235 360.126 464.914 C 360.126 465.936 359.09 466.971 357.825 467.215 C 356.154 467.537 355.645 467.028 355.967 465.357 Z M 365.126 466.181 C 364.079 464.488 365.491 462.431 367.699 462.431 C 368.69 462.431 369.501 463.556 369.501 464.931 C 369.501 467.519 366.485 468.381 365.126 466.181 Z M 402.239 465.244 C 402.47 464.04 403.488 463.056 404.501 463.056 C 405.513 463.056 406.531 464.04 406.763 465.244 C 407.058 466.778 406.383 467.431 404.501 467.431 C 402.618 467.431 401.943 466.778 402.239 465.244 Z M 412.239 465.244 C 412.47 464.04 413.488 463.056 414.501 463.056 C 415.513 463.056 416.531 464.04 416.763 465.244 C 417.058 466.778 416.383 467.431 414.501 467.431 C 412.618 467.431 411.943 466.778 412.239 465.244 Z M 421.308 466.072 C 420.217 464.307 422.627 461.898 424.392 462.989 C 426.374 464.214 426.054 467.431 423.949 467.431 C 422.959 467.431 421.77 466.82 421.308 466.072 Z M 430.967 465.357 C 431.493 462.622 435.126 462.235 435.126 464.914 C 435.126 465.936 434.09 466.971 432.825 467.215 C 431.154 467.537 430.645 467.028 430.967 465.357 Z M 422.313 459.052 C 420.177 458.26 420.336 454.108 422.534 453.264 C 423.515 452.888 425.014 453.418 425.864 454.443 C 427.103 455.936 427.059 456.638 425.643 457.969 C 424.671 458.883 423.172 459.371 422.313 459.052 Z M 289.193 457.119 C 288.263 454.588 289.54 452.431 291.971 452.431 C 294.402 452.431 295.72 454.588 294.837 457.119 C 294.537 457.978 293.274 458.681 292.03 458.681 C 290.786 458.681 289.509 457.978 289.193 457.119 Z M 299.084 456.897 C 298.176 454.534 300.985 452.281 303.162 453.626 C 305.232 454.906 304.027 458.681 301.549 458.681 C 300.569 458.681 299.46 457.878 299.084 456.897 Z M 307.834 456.897 C 306.789 454.176 310.291 451.743 312.551 453.619 C 314.826 455.508 313.697 458.681 310.751 458.681 C 309.523 458.681 308.21 457.878 307.834 456.897 Z M 317.626 457.431 C 316.606 455.781 317.972 453.681 320.066 453.681 C 321.894 453.681 323.524 456.741 322.331 457.934 C 321.165 459.1 318.479 458.812 317.626 457.431 Z M 326.301 457.311 C 325.199 455.528 328.848 451.88 330.631 452.982 C 331.384 453.448 332.001 454.92 332.001 456.255 C 332.001 458.91 327.774 459.693 326.301 457.311 Z M 337.86 457.874 C 336.143 456.157 337.033 453.504 339.188 453.919 C 340.391 454.151 341.376 455.13 341.376 456.094 C 341.376 458.068 339.17 459.184 337.86 457.874 Z M 345.751 456.255 C 345.751 452.889 348.115 451.76 350.393 454.038 C 352.672 456.316 351.543 458.681 348.177 458.681 C 346.608 458.681 345.751 457.823 345.751 456.255 Z M 355.051 457.311 C 353.949 455.528 357.598 451.88 359.381 452.982 C 360.134 453.448 360.751 454.92 360.751 456.255 C 360.751 458.91 356.524 459.693 355.051 457.311 Z M 374.967 456.845 C 374.589 455.858 374.628 454.486 375.055 453.796 C 376.077 452.142 379.501 453.498 379.501 455.556 C 379.501 457.905 375.78 458.962 374.967 456.845 Z M 384.11 457.874 C 382.341 456.104 383.342 453.681 385.842 453.681 C 387.59 453.681 388.302 454.36 388.03 455.765 C 387.584 458.066 385.45 459.214 384.11 457.874 Z M 394.11 457.874 C 392.393 456.157 393.283 453.504 395.438 453.919 C 396.641 454.151 397.626 455.13 397.626 456.094 C 397.626 458.068 395.42 459.184 394.11 457.874 Z M 402.001 456.255 C 402.001 452.889 404.365 451.76 406.643 454.038 C 408.922 456.316 407.793 458.681 404.427 458.681 C 402.858 458.681 402.001 457.823 402.001 456.255 Z M 411.301 457.311 C 410.199 455.528 413.848 451.88 415.631 452.982 C 418.013 454.454 417.229 458.681 414.574 458.681 C 413.24 458.681 411.767 458.065 411.301 457.311 Z M 431.61 457.874 C 429.893 456.157 430.783 453.504 432.938 453.919 C 434.141 454.151 435.126 455.13 435.126 456.094 C 435.126 458.068 432.92 459.184 431.61 457.874 Z M 439.904 456.68 C 438.946 454.182 441.986 452.113 444.072 453.844 C 445.963 455.414 444.87 458.681 442.453 458.681 C 441.473 458.681 440.327 457.781 439.904 456.68 Z M 280.751 455.556 C 280.751 454.514 281.862 453.681 283.251 453.681 C 284.639 453.681 285.751 454.514 285.751 455.556 C 285.751 456.598 284.639 457.431 283.251 457.431 C 281.862 457.431 280.751 456.598 280.751 455.556 Z M 364.739 455.244 C 364.97 454.04 365.988 453.056 367.001 453.056 C 368.013 453.056 369.031 454.04 369.263 455.244 C 369.558 456.778 368.883 457.431 367.001 457.431 C 365.118 457.431 364.443 456.778 364.739 455.244 Z M 449.501 455.556 C 449.501 454.302 450.32 453.656 451.599 453.902 C 452.753 454.124 453.698 454.869 453.698 455.556 C 453.698 456.244 452.753 456.988 451.599 457.21 C 450.32 457.457 449.501 456.81 449.501 455.556 Z M 459.118 456.632 C 457.951 455.465 459.361 453.681 461.449 453.681 C 462.44 453.681 463.251 454.525 463.251 455.556 C 463.251 457.439 460.612 458.126 459.118 456.632 Z M 280.831 448.152 C 278.89 445.814 280.121 443.681 283.411 443.681 C 285.28 443.681 285.822 444.377 285.525 446.396 C 285.026 449.788 282.86 450.598 280.831 448.152 Z M 309.813 449.052 C 307.677 448.26 307.836 444.108 310.034 443.264 C 311.015 442.888 312.514 443.418 313.364 444.443 C 314.603 445.936 314.559 446.638 313.143 447.969 C 312.171 448.883 310.672 449.371 309.813 449.052 Z M 318.331 448.152 C 316.39 445.814 317.621 443.681 320.911 443.681 C 322.78 443.681 323.322 444.377 323.025 446.396 C 322.526 449.788 320.36 450.598 318.331 448.152 Z M 364.848 448.529 C 362.946 446.626 364.254 443.681 367.001 443.681 C 369.747 443.681 371.055 446.626 369.153 448.529 C 368.382 449.3 367.413 449.931 367.001 449.931 C 366.588 449.931 365.62 449.3 364.848 448.529 Z M 374.581 448.152 C 372.64 445.814 373.871 443.681 377.161 443.681 C 379.03 443.681 379.572 444.377 379.275 446.396 C 378.776 449.788 376.61 450.598 374.581 448.152 Z M 383.598 448.529 C 381.696 446.626 383.004 443.681 385.751 443.681 C 388.497 443.681 389.805 446.626 387.903 448.529 C 387.132 449.3 386.163 449.931 385.751 449.931 C 385.338 449.931 384.37 449.3 383.598 448.529 Z M 403.339 448.736 C 401.269 447.457 402.474 443.681 404.953 443.681 C 405.932 443.681 407.041 444.484 407.418 445.465 C 408.325 447.829 405.516 450.081 403.339 448.736 Z M 412.081 448.152 C 410.14 445.814 411.371 443.681 414.661 443.681 C 416.53 443.681 417.072 444.377 416.775 446.396 C 416.276 449.788 414.11 450.598 412.081 448.152 Z M 441.063 449.018 C 440.204 448.718 439.501 447.455 439.501 446.211 C 439.501 443.78 441.657 442.462 444.188 443.344 C 445.047 443.644 445.751 444.907 445.751 446.152 C 445.751 448.582 443.594 449.901 441.063 449.018 Z M 290.058 447.322 C 289.596 446.575 289.795 445.386 290.501 444.681 C 292.078 443.104 294.501 444.436 294.501 446.88 C 294.501 448.984 291.284 449.305 290.058 447.322 Z M 299.739 446.494 C 300.27 443.735 302.493 443.795 303.03 446.582 C 303.276 447.861 302.63 448.681 301.376 448.681 C 300.088 448.681 299.475 447.862 299.739 446.494 Z M 328.251 446.181 C 328.251 444.298 328.903 443.623 330.438 443.919 C 331.641 444.151 332.626 445.169 332.626 446.181 C 332.626 447.194 331.641 448.211 330.438 448.443 C 328.903 448.739 328.251 448.064 328.251 446.181 Z M 337.001 446.181 C 337.001 444.514 337.834 443.681 339.501 443.681 C 341.167 443.681 342.001 444.514 342.001 446.181 C 342.001 447.848 341.167 448.681 339.501 448.681 C 337.834 448.681 337.001 447.848 337.001 446.181 Z M 346.376 447.431 C 345.329 445.738 346.741 443.681 348.949 443.681 C 349.94 443.681 350.751 444.806 350.751 446.181 C 350.751 448.769 347.735 449.631 346.376 447.431 Z M 355.751 446.181 C 355.751 444.514 356.584 443.681 358.251 443.681 C 359.917 443.681 360.751 444.514 360.751 446.181 C 360.751 447.848 359.917 448.681 358.251 448.681 C 356.584 448.681 355.751 447.848 355.751 446.181 Z M 393.467 446.607 C 393.993 443.872 397.626 443.485 397.626 446.164 C 397.626 447.186 396.59 448.221 395.325 448.465 C 393.654 448.787 393.145 448.278 393.467 446.607 Z M 421.308 447.322 C 420.217 445.557 422.627 443.148 424.392 444.239 C 426.374 445.464 426.054 448.681 423.949 448.681 C 422.959 448.681 421.77 448.07 421.308 447.322 Z M 430.989 446.494 C 431.22 445.29 432.238 444.306 433.251 444.306 C 434.263 444.306 435.281 445.29 435.513 446.494 C 435.808 448.028 435.133 448.681 433.251 448.681 C 431.368 448.681 430.693 448.028 430.989 446.494 Z M 449.717 446.607 C 449.96 445.342 450.996 444.306 452.018 444.306 C 454.697 444.306 454.31 447.938 451.575 448.465 C 449.904 448.787 449.395 448.278 449.717 446.607 Z M 459.17 447.934 C 457.997 446.76 459.594 443.681 461.376 443.681 C 463.158 443.681 464.755 446.76 463.581 447.934 C 463.17 448.345 462.178 448.681 461.376 448.681 C 460.573 448.681 459.581 448.345 459.17 447.934 Z M 281.584 440.348 C 279.752 438.516 280.807 434.931 283.177 434.931 C 286.368 434.931 287.596 437.083 285.705 439.361 C 284.055 441.349 282.869 441.633 281.584 440.348 Z M 421.627 440.391 C 421.145 439.909 420.751 438.483 420.751 437.223 C 420.751 435.595 421.681 434.931 423.962 434.931 C 426.575 434.931 427.1 435.454 426.775 437.731 C 426.38 440.502 423.319 442.083 421.627 440.391 Z M 458.331 439.402 C 456.39 437.064 457.621 434.931 460.911 434.931 C 462.78 434.931 463.322 435.627 463.025 437.646 C 462.526 441.038 460.36 441.848 458.331 439.402 Z M 291.063 439.046 C 288.883 438.246 289.11 435.348 291.423 434.461 C 292.537 434.033 293.658 434.538 294.089 435.661 C 294.97 437.956 293.272 439.856 291.063 439.046 Z M 300.3 439.064 C 298.806 437.57 299.493 434.931 301.376 434.931 C 302.407 434.931 303.251 435.742 303.251 436.732 C 303.251 438.821 301.466 440.23 300.3 439.064 Z M 309.518 438.692 C 307.249 437.289 309.001 433.402 311.67 433.916 C 312.867 434.146 314.022 435.242 314.235 436.351 C 314.692 438.724 311.851 440.134 309.518 438.692 Z M 319.084 439.098 C 317.252 437.266 318.307 433.681 320.677 433.681 C 323.622 433.681 324.77 435.275 323.746 437.943 C 322.963 439.984 320.564 440.578 319.084 439.098 Z M 336.206 438.064 C 335.773 436.936 336.018 435.414 336.751 434.681 C 338.655 432.777 342.264 434.517 341.766 437.1 C 341.212 439.978 337.207 440.672 336.206 438.064 Z M 345.751 437.523 C 345.751 435.734 346.553 434.931 348.342 434.931 C 350.131 434.931 350.804 435.604 350.515 437.104 C 349.888 440.363 345.751 440.726 345.751 437.523 Z M 356.61 439.124 C 354.893 437.407 355.783 434.754 357.938 435.169 C 359.141 435.401 360.126 436.38 360.126 437.344 C 360.126 439.318 357.92 440.434 356.61 439.124 Z M 364.904 437.93 C 363.946 435.432 366.986 433.363 369.072 435.094 C 370.963 436.664 369.87 439.931 367.453 439.931 C 366.473 439.931 365.327 439.031 364.904 437.93 Z M 373.801 438.561 C 372.699 436.778 376.348 433.13 378.131 434.232 C 378.884 434.698 379.501 436.17 379.501 437.505 C 379.501 440.16 375.274 440.943 373.801 438.561 Z M 383.916 438.747 C 382.817 436.969 384.219 434.931 386.541 434.931 C 387.636 434.931 388.264 435.809 388.03 437.015 C 387.543 439.526 385.047 440.577 383.916 438.747 Z M 393.717 438.095 C 393.339 437.108 393.378 435.736 393.805 435.046 C 394.827 433.392 398.251 434.748 398.251 436.806 C 398.251 439.155 394.53 440.212 393.717 438.095 Z M 402.456 438.064 C 402.023 436.936 402.268 435.414 403.001 434.681 C 404.905 432.777 408.514 434.517 408.016 437.1 C 407.462 439.978 403.457 440.672 402.456 438.064 Z M 412.001 437.431 C 412.001 435.764 412.834 434.931 414.501 434.931 C 416.167 434.931 417.001 435.764 417.001 437.431 C 417.001 439.098 416.167 439.931 414.501 439.931 C 412.834 439.931 412.001 439.098 412.001 437.431 Z M 431.61 439.124 C 429.893 437.407 430.783 434.754 432.938 435.169 C 434.141 435.401 435.126 436.38 435.126 437.344 C 435.126 439.318 432.92 440.434 431.61 439.124 Z M 440.751 437.431 C 440.751 436.042 441.584 434.931 442.626 434.931 C 443.667 434.931 444.501 436.042 444.501 437.431 C 444.501 438.82 443.667 439.931 442.626 439.931 C 441.584 439.931 440.751 438.82 440.751 437.431 Z M 448.801 438.561 C 447.699 436.778 451.348 433.13 453.131 434.232 C 453.884 434.698 454.501 436.17 454.501 437.505 C 454.501 440.16 450.274 440.943 448.801 438.561 Z M 327.239 436.494 C 327.785 433.655 331.216 433.655 331.763 436.494 C 332.058 438.028 331.383 438.681 329.501 438.681 C 327.618 438.681 326.943 438.028 327.239 436.494 Z" id="path4151"/>
  </g>
</svg>